<svg width="27" height="28" viewBox="0 0 27 28" fill="none" xmlns="http://www.w3.org/2000/svg">
<mask id="path-1-inside-1_1055_4684" fill="white">
<path d="M14.625 12.8335C15.2925 12.8335 15.945 12.6282 16.5 12.2436C17.0551 11.8591 17.4876 11.3124 17.7431 10.6729C17.9985 10.0333 18.0654 9.32961 17.9352 8.65068C17.8049 7.97175 17.4835 7.34811 17.0115 6.85862C16.5395 6.36914 15.9381 6.0358 15.2834 5.90075C14.6287 5.7657 13.9501 5.83501 13.3334 6.09992C12.7167 6.36483 12.1896 6.81343 11.8188 7.389C11.4479 7.96457 11.25 8.64126 11.25 9.3335C11.25 10.2618 11.6056 11.152 12.2385 11.8084C12.8714 12.4647 13.7299 12.8335 14.625 12.8335ZM14.625 8.16683C14.8475 8.16683 15.065 8.23525 15.25 8.36345C15.435 8.49164 15.5792 8.67385 15.6644 8.88703C15.7495 9.10021 15.7718 9.33479 15.7284 9.5611C15.685 9.78741 15.5778 9.99529 15.4205 10.1585C15.2632 10.3216 15.0627 10.4327 14.8445 10.4777C14.6262 10.5228 14.4 10.4997 14.1945 10.4114C13.9889 10.3231 13.8132 10.1735 13.6896 9.98166C13.566 9.78981 13.5 9.56424 13.5 9.3335C13.5 9.02408 13.6185 8.72733 13.8295 8.50854C14.0405 8.28975 14.3266 8.16683 14.625 8.16683ZM19.2488 12.6702C19.9069 11.6914 20.2598 10.5268 20.2598 9.3335C20.2598 8.14021 19.9069 6.97563 19.2488 5.99683C19.5723 5.88881 19.9101 5.83371 20.25 5.8335C21.1451 5.8335 22.0036 6.20225 22.6365 6.85862C23.2694 7.515 23.625 8.40524 23.625 9.3335C23.625 10.2618 23.2694 11.152 22.6365 11.8084C22.0036 12.4647 21.1451 12.8335 20.25 12.8335C19.9101 12.8333 19.5723 12.7782 19.2488 12.6702ZM14.625 15.1668C7.875 15.1668 7.875 19.8335 7.875 19.8335V22.1668H21.375V19.8335C21.375 19.8335 21.375 15.1668 14.625 15.1668ZM10.125 19.8335C10.125 19.4952 10.485 17.5002 14.625 17.5002C18.5625 17.5002 19.0575 19.3202 19.125 19.8335M27 19.8335V22.1668H23.625V19.8335C23.5987 18.9662 23.4061 18.1131 23.0584 17.3239C22.7107 16.5347 22.215 15.8252 21.6 15.2368C27 15.8085 27 19.8335 27 19.8335ZM9 14.0002H5.625V17.5002H3.375V14.0002H0V11.6668H3.375V8.16683H5.625V11.6668H9V14.0002Z"/>
</mask>
<path d="M14.625 12.8335C15.2925 12.8335 15.945 12.6282 16.5 12.2436C17.0551 11.8591 17.4876 11.3124 17.7431 10.6729C17.9985 10.0333 18.0654 9.32961 17.9352 8.65068C17.8049 7.97175 17.4835 7.34811 17.0115 6.85862C16.5395 6.36914 15.9381 6.0358 15.2834 5.90075C14.6287 5.7657 13.9501 5.83501 13.3334 6.09992C12.7167 6.36483 12.1896 6.81343 11.8188 7.389C11.4479 7.96457 11.25 8.64126 11.25 9.3335C11.25 10.2618 11.6056 11.152 12.2385 11.8084C12.8714 12.4647 13.7299 12.8335 14.625 12.8335ZM14.625 8.16683C14.8475 8.16683 15.065 8.23525 15.25 8.36345C15.435 8.49164 15.5792 8.67385 15.6644 8.88703C15.7495 9.10021 15.7718 9.33479 15.7284 9.5611C15.685 9.78741 15.5778 9.99529 15.4205 10.1585C15.2632 10.3216 15.0627 10.4327 14.8445 10.4777C14.6262 10.5228 14.4 10.4997 14.1945 10.4114C13.9889 10.3231 13.8132 10.1735 13.6896 9.98166C13.566 9.78981 13.5 9.56424 13.5 9.3335C13.5 9.02408 13.6185 8.72733 13.8295 8.50854C14.0405 8.28975 14.3266 8.16683 14.625 8.16683ZM19.2488 12.6702C19.9069 11.6914 20.2598 10.5268 20.2598 9.3335C20.2598 8.14021 19.9069 6.97563 19.2488 5.99683C19.5723 5.88881 19.9101 5.83371 20.25 5.8335C21.1451 5.8335 22.0036 6.20225 22.6365 6.85862C23.2694 7.515 23.625 8.40524 23.625 9.3335C23.625 10.2618 23.2694 11.152 22.6365 11.8084C22.0036 12.4647 21.1451 12.8335 20.25 12.8335C19.9101 12.8333 19.5723 12.7782 19.2488 12.6702ZM14.625 15.1668C7.875 15.1668 7.875 19.8335 7.875 19.8335V22.1668H21.375V19.8335C21.375 19.8335 21.375 15.1668 14.625 15.1668ZM10.125 19.8335C10.125 19.4952 10.485 17.5002 14.625 17.5002C18.5625 17.5002 19.0575 19.3202 19.125 19.8335M27 19.8335V22.1668H23.625V19.8335C23.5987 18.9662 23.4061 18.1131 23.0584 17.3239C22.7107 16.5347 22.215 15.8252 21.6 15.2368C27 15.8085 27 19.8335 27 19.8335ZM9 14.0002H5.625V17.5002H3.375V14.0002H0V11.6668H3.375V8.16683H5.625V11.6668H9V14.0002Z" fill="white"/>
<path d="M14.625 12.8335V12.4335V12.8335ZM11.25 9.3335H10.85H11.25ZM14.625 8.16683V8.56683V8.16683ZM19.2488 12.6702L18.9168 12.447L18.6235 12.8831L19.1221 13.0496L19.2488 12.6702ZM19.2488 5.99683L19.1221 5.61742L18.6235 5.78386L18.9168 6.22004L19.2488 5.99683ZM20.25 5.8335V5.4335L20.2498 5.4335L20.25 5.8335ZM23.625 9.3335H24.025H23.625ZM20.25 12.8335L20.2498 13.2335H20.25V12.8335ZM7.875 22.1668H7.475V22.5668H7.875V22.1668ZM21.375 22.1668V22.5668H21.775V22.1668H21.375ZM27 19.8335H26.6H27ZM27 22.1668V22.5668H27.4V22.1668H27ZM23.625 22.1668H23.225V22.5668H23.625V22.1668ZM23.625 19.8335H24.0252L24.0248 19.8214L23.625 19.8335ZM21.6 15.2368L21.6421 14.8391L20.4767 14.7157L21.3235 15.5259L21.6 15.2368ZM9 14.0002V14.4002H9.4V14.0002H9ZM5.625 14.0002V13.6002H5.225V14.0002H5.625ZM5.625 17.5002V17.9002H6.025V17.5002H5.625ZM3.375 17.5002H2.975V17.9002H3.375V17.5002ZM3.375 14.0002H3.775V13.6002H3.375V14.0002ZM0 14.0002H-0.4V14.4002H0V14.0002ZM0 11.6668V11.2668H-0.4V11.6668H0ZM3.375 11.6668V12.0668H3.775V11.6668H3.375ZM3.375 8.16683V7.76683H2.975V8.16683H3.375ZM5.625 8.16683H6.025V7.76683H5.625V8.16683ZM5.625 11.6668H5.225V12.0668H5.625V11.6668ZM9 11.6668H9.4V11.2668H9V11.6668ZM14.625 13.2335C15.3749 13.2335 16.1068 13.0028 16.7279 12.5724L16.2722 11.9149C15.7833 12.2536 15.2101 12.4335 14.625 12.4335V13.2335ZM16.7279 12.5724C17.3488 12.1422 17.8306 11.5322 18.1146 10.8213L17.3716 10.5245C17.1447 11.0927 16.7613 11.5759 16.2722 11.9149L16.7279 12.5724ZM18.1146 10.8213C18.3985 10.1104 18.4726 9.32904 18.328 8.57533L17.5423 8.72603C17.6582 9.33019 17.5986 9.95626 17.3716 10.5245L18.1146 10.8213ZM18.328 8.57533C18.1834 7.82156 17.8262 7.12727 17.2994 6.58097L16.7235 7.13628C17.1408 7.56895 17.4264 8.12193 17.5423 8.72603L18.328 8.57533ZM17.2994 6.58097C16.7725 6.03451 16.0993 5.66063 15.3642 5.509L15.2026 6.2925C15.7769 6.41096 16.3065 6.70377 16.7235 7.13628L17.2994 6.58097ZM15.3642 5.509C14.629 5.35734 13.8672 5.43532 13.1756 5.73239L13.4913 6.46745C14.0331 6.2347 14.6284 6.17406 15.2026 6.2925L15.3642 5.509ZM13.1756 5.73239C12.4842 6.02939 11.8956 6.53129 11.4825 7.17235L12.155 7.60565C12.4837 7.09557 12.9493 6.70027 13.4913 6.46745L13.1756 5.73239ZM11.4825 7.17235C11.0696 7.81327 10.85 8.56532 10.85 9.3335H11.65C11.65 8.71721 11.8263 8.11588 12.155 7.60565L11.4825 7.17235ZM10.85 9.3335C10.85 10.3632 11.2443 11.3536 11.9506 12.086L12.5265 11.5307C11.9668 10.9504 11.65 10.1603 11.65 9.3335H10.85ZM11.9506 12.086C12.6573 12.8189 13.619 13.2335 14.625 13.2335V12.4335C13.8408 12.4335 13.0856 12.1106 12.5265 11.5307L11.9506 12.086ZM14.625 8.56683C14.7651 8.56683 14.9033 8.60983 15.0222 8.69223L15.4778 8.03467C15.2267 7.86067 14.9299 7.76683 14.625 7.76683V8.56683ZM15.0222 8.69223C15.1413 8.77476 15.2363 8.89362 15.2929 9.0354L16.0358 8.73866C15.9222 8.45409 15.7287 8.20853 15.4778 8.03467L15.0222 8.69223ZM15.2929 9.0354C15.3496 9.1773 15.3646 9.33422 15.3355 9.48575L16.1212 9.63645C16.179 9.33536 16.1495 9.02313 16.0358 8.73866L15.2929 9.0354ZM15.3355 9.48575C15.3065 9.63723 15.2351 9.77446 15.1326 9.8808L15.7084 10.4361C15.9206 10.2161 16.0635 9.9376 16.1212 9.63645L15.3355 9.48575ZM15.1326 9.8808C15.0302 9.98699 14.9015 10.0576 14.7637 10.086L14.9253 10.8695C15.2239 10.8079 15.4962 10.6562 15.7084 10.4361L15.1326 9.8808ZM14.7637 10.086C14.626 10.1144 14.483 10.1 14.3524 10.0438L14.0366 10.7789C14.3171 10.8994 14.6265 10.9311 14.9253 10.8695L14.7637 10.086ZM14.3524 10.0438C14.2215 9.98762 14.1073 9.89138 14.0258 9.76501L13.3533 10.1983C13.5192 10.4557 13.7563 10.6585 14.0366 10.7789L14.3524 10.0438ZM14.0258 9.76501C13.9443 9.6385 13.9 9.4883 13.9 9.3335H13.1C13.1 9.64019 13.1876 9.94111 13.3533 10.1983L14.0258 9.76501ZM13.9 9.3335C13.9 9.12557 13.9798 8.92895 14.1174 8.78619L13.5416 8.23089C13.2573 8.52572 13.1 8.92259 13.1 9.3335H13.9ZM14.1174 8.78619C14.2546 8.64393 14.4375 8.56683 14.625 8.56683V7.76683C14.2158 7.76683 13.8263 7.93556 13.5416 8.23089L14.1174 8.78619ZM19.5807 12.8934C20.2838 11.8478 20.6598 10.6053 20.6598 9.3335H19.8598C19.8598 10.4483 19.5301 11.535 18.9168 12.447L19.5807 12.8934ZM20.6598 9.3335C20.6598 8.06169 20.2838 6.81922 19.5807 5.77363L18.9168 6.22004C19.5301 7.13203 19.8598 8.21873 19.8598 9.3335H20.6598ZM19.3754 6.37624C19.6584 6.28179 19.9535 6.23368 20.2502 6.2335L20.2498 5.4335C19.8667 5.43374 19.4862 5.49584 19.1221 5.61742L19.3754 6.37624ZM20.25 6.2335C21.0342 6.2335 21.7894 6.55643 22.3485 7.13628L22.9244 6.58097C22.2177 5.84806 21.256 5.4335 20.25 5.4335V6.2335ZM22.3485 7.13628C22.9082 7.71662 23.225 8.50673 23.225 9.3335H24.025C24.025 8.30375 23.6307 7.31339 22.9244 6.58097L22.3485 7.13628ZM23.225 9.3335C23.225 10.1603 22.9082 10.9504 22.3485 11.5307L22.9244 12.086C23.6307 11.3536 24.025 10.3632 24.025 9.3335H23.225ZM22.3485 11.5307C21.7894 12.1106 21.0342 12.4335 20.25 12.4335V13.2335C21.256 13.2335 22.2177 12.8189 22.9244 12.086L22.3485 11.5307ZM20.2502 12.4335C19.9535 12.4333 19.6584 12.3852 19.3754 12.2907L19.1221 13.0496C19.4862 13.1712 19.8667 13.2333 20.2498 13.2335L20.2502 12.4335ZM14.625 14.7668C11.1468 14.7668 9.32723 15.9762 8.39463 17.2658C7.93562 17.9004 7.70634 18.5347 7.59161 19.0106C7.53417 19.2489 7.50507 19.4489 7.4903 19.5919C7.48291 19.6634 7.47909 19.7208 7.47711 19.7618C7.47612 19.7823 7.4756 19.7987 7.47531 19.8108C7.47517 19.8168 7.4751 19.8217 7.47505 19.8255C7.47503 19.8274 7.47502 19.829 7.47501 19.8304C7.47501 19.831 7.475 19.8316 7.475 19.8321C7.475 19.8324 7.475 19.8327 7.475 19.8329C7.475 19.8332 7.475 19.8335 7.875 19.8335C8.275 19.8335 8.275 19.8338 8.275 19.834C8.275 19.8341 8.275 19.8343 8.275 19.8344C8.275 19.8347 8.275 19.8348 8.275 19.8349C8.275 19.8351 8.275 19.8351 8.275 19.8347C8.27501 19.834 8.27503 19.8322 8.2751 19.8294C8.27523 19.8238 8.27552 19.814 8.27618 19.8004C8.2775 19.773 8.28027 19.7302 8.28607 19.6741C8.29767 19.5618 8.3213 19.3973 8.36933 19.1981C8.46554 18.799 8.65813 18.2666 9.04287 17.7346C9.79777 16.6908 11.3532 15.5668 14.625 15.5668V14.7668ZM7.475 19.8335V22.1668H8.275V19.8335H7.475ZM7.875 22.5668H21.375V21.7668H7.875V22.5668ZM21.775 22.1668V19.8335H20.975V22.1668H21.775ZM21.375 19.8335C21.775 19.8335 21.775 19.8332 21.775 19.8329C21.775 19.8327 21.775 19.8324 21.775 19.8321C21.775 19.8316 21.775 19.831 21.775 19.8304C21.775 19.829 21.775 19.8274 21.7749 19.8255C21.7749 19.8217 21.7748 19.8168 21.7747 19.8108C21.7744 19.7987 21.7739 19.7823 21.7729 19.7618C21.7709 19.7208 21.7671 19.6634 21.7597 19.5919C21.7449 19.4489 21.7158 19.2489 21.6584 19.0106C21.5437 18.5347 21.3144 17.9004 20.8554 17.2658C19.9228 15.9762 18.1032 14.7668 14.625 14.7668V15.5668C17.8968 15.5668 19.4522 16.6908 20.2071 17.7346C20.5919 18.2666 20.7845 18.799 20.8807 19.1981C20.9287 19.3973 20.9523 19.5618 20.9639 19.6741C20.9697 19.7302 20.9725 19.773 20.9738 19.8004C20.9745 19.814 20.9748 19.8238 20.9749 19.8294C20.975 19.8322 20.975 19.834 20.975 19.8347C20.975 19.8351 20.975 19.8351 20.975 19.8349C20.975 19.8348 20.975 19.8347 20.975 19.8344C20.975 19.8343 20.975 19.8341 20.975 19.834C20.975 19.8338 20.975 19.8335 21.375 19.8335ZM10.525 19.8335C10.525 19.7638 10.5766 19.2946 11.0885 18.8387C11.5988 18.3842 12.6154 17.9002 14.625 17.9002V17.1002C12.4946 17.1002 11.2612 17.6136 10.5565 18.2412C9.85342 18.8674 9.725 19.5648 9.725 19.8335H10.525ZM14.625 17.9002C16.5358 17.9002 17.5412 18.3418 18.0705 18.7819C18.5955 19.2184 18.7035 19.6964 18.7284 19.8856L19.5216 19.7813C19.479 19.4573 19.3057 18.7686 18.582 18.1668C17.8625 17.5685 16.6517 17.1002 14.625 17.1002V17.9002ZM26.6 19.8335V22.1668H27.4V19.8335H26.6ZM27 21.7668H23.625V22.5668H27V21.7668ZM24.025 22.1668V19.8335H23.225V22.1668H24.025ZM24.0248 19.8214C23.997 18.903 23.793 17.9992 23.4245 17.1626L22.6924 17.4852C23.0192 18.227 23.2004 19.0295 23.2252 19.8456L24.0248 19.8214ZM23.4245 17.1626C23.0559 16.326 22.5299 15.573 21.8765 14.9478L21.3235 15.5259C21.9 16.0774 22.3656 16.7433 22.6924 17.4852L23.4245 17.1626ZM21.5579 15.6346C24.1452 15.9085 25.3812 16.9962 25.986 17.9619C26.2939 18.4535 26.448 18.9292 26.5248 19.281C26.5632 19.4566 26.582 19.6 26.5912 19.6972C26.5958 19.7458 26.598 19.7826 26.5991 19.8059C26.5996 19.8176 26.5998 19.8259 26.5999 19.8306C26.6 19.8329 26.6 19.8343 26.6 19.8348C26.6 19.8351 26.6 19.8351 26.6 19.8349C26.6 19.8348 26.6 19.8346 26.6 19.8344C26.6 19.8343 26.6 19.834 26.6 19.834C26.6 19.8337 26.6 19.8335 27 19.8335C27.4 19.8335 27.4 19.8332 27.4 19.8329C27.4 19.8328 27.4 19.8325 27.4 19.8323C27.4 19.8318 27.4 19.8313 27.4 19.8307C27.4 19.8295 27.4 19.828 27.4 19.8263C27.3999 19.8229 27.3999 19.8186 27.3997 19.8133C27.3995 19.8027 27.3991 19.7883 27.3983 19.7704C27.3967 19.7345 27.3936 19.6843 27.3877 19.6217C27.3758 19.4965 27.3524 19.321 27.3064 19.1103C27.2145 18.6896 27.0311 18.1233 26.664 17.5372C25.9188 16.3475 24.4548 15.1368 21.6421 14.8391L21.5579 15.6346ZM9 13.6002H5.625V14.4002H9V13.6002ZM5.225 14.0002V17.5002H6.025V14.0002H5.225ZM5.625 17.1002H3.375V17.9002H5.625V17.1002ZM3.775 17.5002V14.0002H2.975V17.5002H3.775ZM3.375 13.6002H0V14.4002H3.375V13.6002ZM0.4 14.0002V11.6668H-0.4V14.0002H0.4ZM0 12.0668H3.375V11.2668H0V12.0668ZM3.775 11.6668V8.16683H2.975V11.6668H3.775ZM3.375 8.56683H5.625V7.76683H3.375V8.56683ZM5.225 8.16683V11.6668H6.025V8.16683H5.225ZM5.625 12.0668H9V11.2668H5.625V12.0668ZM8.6 11.6668V14.0002H9.4V11.6668H8.6Z" fill="#224682" mask="url(#path-1-inside-1_1055_4684)"/>
</svg>
