<svg width="24" height="30" viewBox="0 0 24 30" fill="none" xmlns="http://www.w3.org/2000/svg">
<path d="M22.6667 10V23C22.6667 27 20.28 28.3333 17.3333 28.3333H6.66668C3.72001 28.3333 1.33334 27 1.33334 23V10C1.33334 5.66667 3.72001 4.66667 6.66668 4.66667C6.66668 5.49334 7.00001 6.24001 7.54668 6.78667C8.09334 7.33334 8.84001 7.66667 9.66668 7.66667H14.3333C15.9867 7.66667 17.3333 6.32001 17.3333 4.66667C20.28 4.66667 22.6667 5.66667 22.6667 10Z" stroke="#282828" stroke-width="1.5" stroke-linecap="round" stroke-linejoin="round"/>
<path d="M17.3333 4.66667C17.3333 6.32001 15.9867 7.66667 14.3333 7.66667H9.66666C8.83999 7.66667 8.09332 7.33334 7.54666 6.78667C6.99999 6.24001 6.66666 5.49334 6.66666 4.66667C6.66666 3.01334 8.01332 1.66667 9.66666 1.66667H14.3333C15.16 1.66667 15.9067 2.00001 16.4533 2.54667C17 3.09334 17.3333 3.84001 17.3333 4.66667Z" stroke="#282828" stroke-width="1.5" stroke-linecap="round" stroke-linejoin="round"/>
<path d="M9.5 19.1667H16.5V12.1667H15.3333V16.25L13.875 15.375L12.4167 16.25V12.1667H9.5V19.1667ZM9.5 20.3333C9.17917 20.3333 8.90461 20.2192 8.67633 19.9909C8.44767 19.7623 8.33333 19.4875 8.33333 19.1667V12.1667C8.33333 11.8458 8.44767 11.5711 8.67633 11.3424C8.90461 11.1141 9.17917 11 9.5 11H16.5C16.8208 11 17.0956 11.1141 17.3243 11.3424C17.5525 11.5711 17.6667 11.8458 17.6667 12.1667V19.1667C17.6667 19.4875 17.5525 19.7623 17.3243 19.9909C17.0956 20.2192 16.8208 20.3333 16.5 20.3333H9.5ZM7.16667 22.6667C6.84583 22.6667 6.57128 22.5525 6.343 22.3243C6.11433 22.0956 6 21.8208 6 21.5V13.3333H7.16667V21.5H15.3333V22.6667H7.16667Z" fill="#282828"/>
</svg>
