<svg width="25" height="25" viewBox="0 0 25 25" fill="none" xmlns="http://www.w3.org/2000/svg">
<g clip-path="url(#clip0_1258_7153)">
<path d="M4 2H5.74C6.82 2 7.67 2.93 7.58 4L6.75 13.96C6.71759 14.3459 6.76569 14.7342 6.89123 15.1005C7.01678 15.4669 7.21705 15.8031 7.47934 16.0879C7.74163 16.3728 8.06023 16.6001 8.41495 16.7553C8.76967 16.9106 9.15278 16.9905 9.54 16.99H20.19C21.63 16.99 22.89 15.81 23 14.38L23.54 6.88C23.66 5.22 22.4 3.87 20.73 3.87H7.82M11 8H23M18.25 22C18.5815 22 18.8995 21.8683 19.1339 21.6339C19.3683 21.3995 19.5 21.0815 19.5 20.75C19.5 20.4185 19.3683 20.1005 19.1339 19.8661C18.8995 19.6317 18.5815 19.5 18.25 19.5C17.9185 19.5 17.6005 19.6317 17.3661 19.8661C17.1317 20.1005 17 20.4185 17 20.75C17 21.0815 17.1317 21.3995 17.3661 21.6339C17.6005 21.8683 17.9185 22 18.25 22ZM10.25 22C10.5815 22 10.8995 21.8683 11.1339 21.6339C11.3683 21.3995 11.5 21.0815 11.5 20.75C11.5 20.4185 11.3683 20.1005 11.1339 19.8661C10.8995 19.6317 10.5815 19.5 10.25 19.5C9.91848 19.5 9.60054 19.6317 9.36612 19.8661C9.1317 20.1005 9 20.4185 9 20.75C9 21.0815 9.1317 21.3995 9.36612 21.6339C9.60054 21.8683 9.91848 22 10.25 22V22Z" stroke="black" stroke-width="1.5" stroke-miterlimit="10" stroke-linecap="round" stroke-linejoin="round"/>
</g>
<defs>
<clipPath id="clip0_1258_7153">
<rect width="25" height="25" fill="white"/>
</clipPath>
</defs>
</svg>
