<svg width="17" height="16" viewBox="0 0 17 16" fill="none" xmlns="http://www.w3.org/2000/svg">
<path d="M14.0302 11C13.5898 11.0024 13.1609 11.1491 12.8026 11.42L11.0641 10.3325C11.1461 10.0634 11.1892 9.78272 11.1918 9.5C11.1898 8.83658 10.9798 8.19259 10.5946 7.66877C10.2094 7.14495 9.6708 6.77086 9.06305 6.605V4.865C9.5365 4.68808 9.93554 4.33995 10.1896 3.88214C10.4437 3.42434 10.5365 2.88632 10.4516 2.3632C10.3667 1.84008 10.1095 1.36553 9.72557 1.02342C9.34163 0.681318 8.85562 0.493683 8.35345 0.493683C7.85127 0.493683 7.36527 0.681318 6.98132 1.02342C6.59738 1.36553 6.34023 1.84008 6.25531 2.3632C6.17039 2.88632 6.26317 3.42434 6.51727 3.88214C6.77136 4.33995 7.17039 4.68808 7.64385 4.865V6.605C7.03609 6.77086 6.4975 7.14495 6.11231 7.66877C5.72713 8.19259 5.51709 8.83658 5.51505 9.5C5.51769 9.78272 5.56075 10.0634 5.64278 10.3325L3.90426 11.42C3.54602 11.1491 3.11711 11.0024 2.67665 11C2.25561 11 1.84403 11.132 1.49395 11.3792C1.14388 11.6264 0.871021 11.9778 0.709898 12.389C0.548774 12.8001 0.506617 13.2525 0.588757 13.689C0.670897 14.1254 0.873645 14.5263 1.17136 14.841C1.46908 15.1557 1.8484 15.37 2.26134 15.4568C2.67429 15.5436 3.10232 15.499 3.49131 15.3287C3.88029 15.1584 4.21277 14.87 4.44668 14.5C4.6806 14.13 4.80545 13.695 4.80545 13.25C4.80283 13.0469 4.77418 12.845 4.7203 12.65L6.35238 11.6225C6.88419 12.1813 7.60358 12.4949 8.35345 12.4949C9.10331 12.4949 9.82271 12.1813 10.3545 11.6225L11.9866 12.65C11.8677 13.1042 11.8867 13.5864 12.041 14.0286C12.1953 14.4707 12.4771 14.8505 12.8465 15.1143C13.216 15.3782 13.6545 15.5127 14.1002 15.499C14.5459 15.4853 14.9763 15.3241 15.3306 15.038C15.6849 14.7519 15.9453 14.3555 16.075 13.9046C16.2048 13.4537 16.1972 12.9712 16.0536 12.525C15.9099 12.0789 15.6373 11.6917 15.2743 11.4181C14.9113 11.1445 14.4761 10.9982 14.0302 11ZM2.67665 14C2.53631 14 2.39911 13.956 2.28242 13.8736C2.16573 13.7912 2.07477 13.6741 2.02107 13.537C1.96736 13.4 1.95331 13.2492 1.98069 13.1037C2.00807 12.9582 2.07565 12.8246 2.17489 12.7197C2.27413 12.6148 2.40057 12.5434 2.53822 12.5144C2.67586 12.4855 2.81854 12.5003 2.9482 12.5571C3.07787 12.6139 3.18869 12.71 3.26666 12.8333C3.34463 12.9567 3.38625 13.1017 3.38625 13.25C3.38625 13.4489 3.31149 13.6397 3.17841 13.7803C3.04534 13.921 2.86485 14 2.67665 14ZM8.35345 2C8.49379 2 8.63099 2.04399 8.74768 2.1264C8.86437 2.20881 8.95532 2.32595 9.00903 2.46299C9.06274 2.60004 9.07679 2.75084 9.04941 2.89632C9.02203 3.04181 8.95445 3.17544 8.85521 3.28033C8.75597 3.38522 8.62953 3.45665 8.49188 3.48559C8.35423 3.51453 8.21156 3.49968 8.0819 3.44291C7.95223 3.38615 7.84141 3.29002 7.76344 3.16668C7.68547 3.04334 7.64385 2.89834 7.64385 2.75C7.64385 2.55109 7.71861 2.36033 7.85169 2.21967C7.98476 2.07902 8.16525 2 8.35345 2ZM8.35345 11C8.07276 11 7.79837 10.912 7.56498 10.7472C7.3316 10.5824 7.14969 10.3481 7.04228 10.074C6.93486 9.79994 6.90676 9.49834 6.96152 9.20737C7.01628 8.9164 7.15144 8.64912 7.34992 8.43934C7.5484 8.22956 7.80128 8.0867 8.07658 8.02882C8.35187 7.97095 8.63723 8.00065 8.89655 8.11418C9.15588 8.22772 9.37752 8.41997 9.53347 8.66665C9.68941 8.91332 9.77265 9.20333 9.77265 9.5C9.77265 9.89783 9.62312 10.2794 9.35697 10.5607C9.09082 10.842 8.72984 11 8.35345 11ZM14.0302 14C13.8899 14 13.7527 13.956 13.636 13.8736C13.5193 13.7912 13.4284 13.6741 13.3747 13.537C13.321 13.4 13.3069 13.2492 13.3343 13.1037C13.3617 12.9582 13.4292 12.8246 13.5285 12.7197C13.6277 12.6148 13.7542 12.5434 13.8918 12.5144C14.0295 12.4855 14.1721 12.5003 14.3018 12.5571C14.4315 12.6139 14.5423 12.71 14.6203 12.8333C14.6982 12.9567 14.7398 13.1017 14.7398 13.25C14.7398 13.4489 14.6651 13.6397 14.532 13.7803C14.3989 13.921 14.2184 14 14.0302 14Z" fill="black"/>
</svg>
