<svg width="32" height="32" viewBox="0 0 32 32" fill="none" xmlns="http://www.w3.org/2000/svg">
<path d="M26.6667 11V24C26.6667 28 24.28 29.3333 21.3333 29.3333H10.6667C7.72001 29.3333 5.33334 28 5.33334 24V11C5.33334 6.66666 7.72001 5.66666 10.6667 5.66666C10.6667 6.49333 11 7.24 11.5467 7.78666C12.0933 8.33333 12.84 8.66666 13.6667 8.66666H18.3333C19.9867 8.66666 21.3333 7.32 21.3333 5.66666C24.28 5.66666 26.6667 6.66666 26.6667 11Z" stroke="#282828" stroke-width="1.5" stroke-linecap="round" stroke-linejoin="round"/>
<path d="M10.6667 17.3333H16M10.6667 22.6667H21.3333M21.3333 5.66666C21.3333 7.32 19.9867 8.66666 18.3333 8.66666H13.6667C12.84 8.66666 12.0933 8.33333 11.5467 7.78666C11 7.24 10.6667 6.49333 10.6667 5.66666C10.6667 4.01333 12.0133 2.66666 13.6667 2.66666H18.3333C19.16 2.66666 19.9067 3 20.4533 3.54666C21 4.09333 21.3333 4.84 21.3333 5.66666Z" stroke="#282828" stroke-width="1.5" stroke-linecap="round" stroke-linejoin="round"/>
<rect width="14" height="14" transform="translate(9 11)" fill="#F0EFF4"/>
<path d="M20.0833 16.8333H11.9167C11.2732 16.8333 10.75 17.3566 10.75 18V22.6667C10.75 23.3101 11.2732 23.8333 11.9167 23.8333H20.0833C20.7267 23.8333 21.25 23.3101 21.25 22.6667V18C21.25 17.3566 20.7267 16.8333 20.0833 16.8333ZM11.9167 22.6667V18H20.0833L20.0845 22.6667H11.9167ZM11.9167 14.5H20.0833V15.6667H11.9167V14.5ZM13.0833 12.1667H18.9167V13.3333H13.0833V12.1667Z" fill="black"/>
</svg>
