<svg width="32" height="32" viewBox="0 0 32 32" fill="none" xmlns="http://www.w3.org/2000/svg">
<path d="M26.6667 10.9998V23.9998C26.6667 27.9998 24.28 29.3332 21.3334 29.3332H10.6667C7.72004 29.3332 5.33337 27.9998 5.33337 23.9998V10.9998C5.33337 6.6665 7.72004 5.6665 10.6667 5.6665C10.6667 6.49317 11 7.23984 11.5467 7.7865C12.0934 8.33317 12.84 8.6665 13.6667 8.6665H18.3334C19.9867 8.6665 21.3334 7.31984 21.3334 5.6665C24.28 5.6665 26.6667 6.6665 26.6667 10.9998Z" stroke="#282828" stroke-width="1.5" stroke-linecap="round" stroke-linejoin="round"/>
<path d="M10.6666 17.3332H16M10.6666 22.6665H21.3333M21.3333 5.6665C21.3333 7.31984 19.9866 8.6665 18.3333 8.6665H13.6666C12.84 8.6665 12.0933 8.33317 11.5466 7.7865C11 7.23984 10.6666 6.49317 10.6666 5.6665C10.6666 4.01317 12.0133 2.6665 13.6666 2.6665H18.3333C19.16 2.6665 19.9066 2.99984 20.4533 3.5465C21 4.09317 21.3333 4.83984 21.3333 5.6665Z" stroke="#282828" stroke-width="1.5" stroke-linecap="round" stroke-linejoin="round"/>
<rect width="16" height="16" transform="translate(8 10)" fill="#F0EFF4"/>
<path d="M14 18V19.3333M12 18V20M16 18V20M20 18V20M18 18V19.3333M10 12V14.6667M10 13.3333H22M22 12V14.6667M21.25 18C21.664 18 22 18.3413 22 18.762V22.5713C22 22.992 21.664 23.3333 21.25 23.3333H10.6667C10.4899 23.3333 10.3203 23.2631 10.1953 23.1381C10.0702 23.013 10 22.8435 10 22.6667V18.762C10 18.3413 10.336 18 10.75 18H21.25Z" stroke="black" stroke-width="1.5" stroke-linecap="round" stroke-linejoin="round"/>
</svg>
