<svg width="32" height="32" viewBox="0 0 32 32" fill="none" xmlns="http://www.w3.org/2000/svg">
<path d="M26.6667 10.9998V23.9998C26.6667 27.9998 24.28 29.3332 21.3334 29.3332H10.6667C7.72004 29.3332 5.33337 27.9998 5.33337 23.9998V10.9998C5.33337 6.6665 7.72004 5.6665 10.6667 5.6665C10.6667 6.49317 11 7.23984 11.5467 7.7865C12.0934 8.33317 12.84 8.6665 13.6667 8.6665H18.3334C19.9867 8.6665 21.3334 7.31984 21.3334 5.6665C24.28 5.6665 26.6667 6.6665 26.6667 10.9998Z" stroke="#282828" stroke-width="1.5" stroke-linecap="round" stroke-linejoin="round"/>
<path d="M10.6666 17.3332H16M10.6666 22.6665H21.3333M21.3333 5.6665C21.3333 7.31984 19.9866 8.6665 18.3333 8.6665H13.6666C12.84 8.6665 12.0933 8.33317 11.5466 7.7865C11 7.23984 10.6666 6.49317 10.6666 5.6665C10.6666 4.01317 12.0133 2.6665 13.6666 2.6665H18.3333C19.16 2.6665 19.9066 2.99984 20.4533 3.5465C21 4.09317 21.3333 4.83984 21.3333 5.6665Z" stroke="#282828" stroke-width="1.5" stroke-linecap="round" stroke-linejoin="round"/>
<rect width="14" height="14" transform="translate(9 11)" fill="#ABABAB"/>
<path d="M20.0833 16.8332H11.9167C11.2732 16.8332 10.75 17.3564 10.75 17.9998V22.6665C10.75 23.3099 11.2732 23.8332 11.9167 23.8332H20.0833C20.7267 23.8332 21.25 23.3099 21.25 22.6665V17.9998C21.25 17.3564 20.7267 16.8332 20.0833 16.8332ZM11.9167 22.6665V17.9998H20.0833L20.0845 22.6665H11.9167ZM11.9167 14.4998H20.0833V15.6665H11.9167V14.4998ZM13.0833 12.1665H18.9167V13.3332H13.0833V12.1665Z" fill="black"/>
<rect width="17" height="17" transform="translate(8 10)" fill="#F0EFF4"/>
<path d="M20.4525 12.8332H17.9167V11.4165H22.875V16.3748H21.4583V13.8319L18.7454 16.5448C19.0655 17.0282 19.2621 17.5828 19.3178 18.1599C19.3736 18.737 19.2868 19.3189 19.0651 19.8547C18.8434 20.3904 18.4936 20.8635 18.0463 21.2324C17.5991 21.6014 17.0681 21.8549 16.5 21.9707V23.4582H17.9167V24.8748H16.5V26.2915H15.0833V24.8748H13.6667V23.4582H15.0833V21.9707C14.2834 21.8074 13.5644 21.3727 13.0481 20.7402C12.5318 20.1077 12.2498 19.3163 12.25 18.4998C12.25 17.5605 12.6231 16.6597 13.2873 15.9955C13.9515 15.3313 14.8524 14.9582 15.7917 14.9582C16.5 14.9582 17.18 15.1707 17.7396 15.5461L20.4525 12.8332ZM15.7917 16.3748C15.2281 16.3748 14.6876 16.5987 14.2891 16.9972C13.8905 17.3957 13.6667 17.9363 13.6667 18.4998C13.6667 19.0634 13.8905 19.6039 14.2891 20.0024C14.6876 20.401 15.2281 20.6248 15.7917 20.6248C16.3553 20.6248 16.8958 20.401 17.2943 20.0024C17.6928 19.6039 17.9167 19.0634 17.9167 18.4998C17.9167 17.9363 17.6928 17.3957 17.2943 16.9972C16.8958 16.5987 16.3553 16.3748 15.7917 16.3748Z" fill="black"/>
</svg>
