<svg width="96" height="96" viewBox="0 0 96 96" fill="none" xmlns="http://www.w3.org/2000/svg">
<path fill-rule="evenodd" clip-rule="evenodd" d="M48 96C60.7304 96 72.9394 90.9429 81.9411 81.9411C90.9429 72.9394 96 60.7304 96 48C96 35.2696 90.9429 23.0606 81.9411 14.0589C72.9394 5.05713 60.7304 0 48 0C35.2696 0 23.0606 5.05713 14.0589 14.0589C5.05713 23.0606 0 35.2696 0 48C0 60.7304 5.05713 72.9394 14.0589 81.9411C23.0606 90.9429 35.2696 96 48 96ZM70.24 40.24C71.2998 39.1026 71.8768 37.5982 71.8494 36.0438C71.822 34.4894 71.1923 33.0063 70.093 31.907C68.9937 30.8077 67.5106 30.178 65.9562 30.1506C64.4018 30.1232 62.8974 30.7002 61.76 31.76L42 51.515L34.24 43.76C33.1026 42.7002 31.5982 42.1232 30.0438 42.1506C28.4894 42.178 27.0063 42.8077 25.907 43.907C24.8077 45.0063 24.178 46.4894 24.1506 48.0438C24.1232 49.5982 24.7002 51.1026 25.76 52.24L37.76 64.24C38.885 65.3636 40.41 65.9947 42 65.9947C43.59 65.9947 45.115 65.3636 46.24 64.24L70.24 40.24Z" fill="#019959"/>
</svg>
