<svg width="13" height="16" viewBox="0 0 13 16" fill="none" xmlns="http://www.w3.org/2000/svg">
<path d="M6.35355 8C6.74383 8 7.07806 7.853 7.35622 7.559C7.63438 7.265 7.77323 6.912 7.77275 6.5C7.77275 6.0875 7.63367 5.73425 7.35551 5.44025C7.07735 5.14625 6.74336 4.9995 6.35355 5C5.96327 5 5.62905 5.147 5.35089 5.441C5.07273 5.735 4.93388 6.088 4.93436 6.5C4.93436 6.9125 5.07344 7.26575 5.3516 7.55975C5.62976 7.85375 5.96375 8.0005 6.35355 8ZM6.35355 13.5125C7.79641 12.1125 8.86672 10.8405 9.56449 9.6965C10.2623 8.5525 10.6112 7.537 10.6112 6.65C10.6112 5.2875 10.2001 4.172 9.37787 3.3035C8.55568 2.435 7.54757 2.0005 6.35355 2C5.15906 2 4.15072 2.4345 3.32853 3.3035C2.50634 4.1725 2.09548 5.288 2.09596 6.65C2.09596 7.5375 2.44484 8.55325 3.14262 9.69725C3.84039 10.8412 4.9107 12.113 6.35355 13.5125ZM6.35355 15.5C4.44946 13.7875 3.02742 12.197 2.08744 10.7285C1.14746 9.26 0.677231 7.9005 0.676758 6.65C0.676758 4.775 1.24751 3.28125 2.38902 2.16875C3.53053 1.05625 4.85204 0.5 6.35355 0.5C7.85554 0.5 9.17729 1.05625 10.3188 2.16875C11.4603 3.28125 12.0308 4.775 12.0304 6.65C12.0304 7.9 11.5601 9.2595 10.6197 10.7285C9.67921 12.1975 8.25717 13.788 6.35355 15.5Z" fill="black"/>
</svg>
