<svg width="15" height="17" viewBox="0 0 15 17" fill="none" xmlns="http://www.w3.org/2000/svg">
<path d="M10.6112 6H12.0304V3.75H14.1592V2.25H12.0304V0H10.6112V2.25H8.48235V3.75H10.6112V6ZM6.35355 9C6.74383 9 7.07806 8.853 7.35622 8.559C7.63438 8.265 7.77323 7.912 7.77275 7.5C7.77275 7.0875 7.63367 6.73425 7.35551 6.44025C7.07735 6.14625 6.74336 5.9995 6.35355 6C5.96327 6 5.62905 6.147 5.35089 6.441C5.07273 6.735 4.93388 7.088 4.93436 7.5C4.93436 7.9125 5.07344 8.26575 5.3516 8.55975C5.62976 8.85375 5.96375 9.0005 6.35355 9ZM6.35355 16.5C4.44946 14.7875 3.02742 13.197 2.08744 11.7285C1.14746 10.26 0.677231 8.9005 0.676758 7.65C0.676758 5.775 1.24751 4.28125 2.38902 3.16875C3.53053 2.05625 4.85204 1.5 6.35355 1.5C6.47182 1.5 6.59009 1.50325 6.70835 1.50975C6.82662 1.51625 6.94489 1.5255 7.06315 1.5375V3.05625C6.94489 3.03125 6.82946 3.0155 6.71687 3.009C6.60428 3.0025 6.48317 2.9995 6.35355 3C5.15906 3 4.15072 3.4345 3.32853 4.3035C2.50634 5.1725 2.09548 6.288 2.09596 7.65C2.09596 8.5375 2.44484 9.55325 3.14262 10.6972C3.84039 11.8412 4.9107 13.113 6.35355 14.5125C7.79641 13.1125 8.86672 11.8405 9.56449 10.6965C10.2623 9.5525 10.6112 8.537 10.6112 7.65V7.5H12.0304V7.65C12.0304 8.9 11.5601 10.2595 10.6197 11.7285C9.67921 13.1975 8.25717 14.788 6.35355 16.5Z" fill="black"/>
</svg>
