<svg width="58" height="60" viewBox="0 0 58 60" fill="none" xmlns="http://www.w3.org/2000/svg">
<g filter="url(#filter0_d_1468_12438)">
<circle cx="29" cy="30" r="20" fill="url(#paint0_linear_1468_12438)"/>
</g>
<g filter="url(#filter1_d_1468_12438)">
<path d="M34.5 20.8333C34.9862 20.8333 35.4525 21.0265 35.7963 21.3703C36.1401 21.7141 36.3333 22.1804 36.3333 22.6667V37.3333C36.3333 37.8196 36.1401 38.2859 35.7963 38.6297C35.4525 38.9735 34.9862 39.1667 34.5 39.1667H23.5C23.0137 39.1667 22.5474 38.9735 22.2036 38.6297C21.8598 38.2859 21.6666 37.8196 21.6666 37.3333V22.6667C21.6666 22.1804 21.8598 21.7141 22.2036 21.3703C22.5474 21.0265 23.0137 20.8333 23.5 20.8333H34.5ZM34.5 22.6667H29.9166V27.25L27.625 25.1417L25.3333 27.25V22.6667H23.5V37.3333H34.5M29.9166 29.0833C30.2792 29.0833 30.6337 29.1909 30.9352 29.3923C31.2367 29.5938 31.4716 29.8801 31.6104 30.2151C31.7492 30.5501 31.7855 30.9187 31.7147 31.2743C31.644 31.63 31.4694 31.9566 31.213 32.213C30.9566 32.4694 30.6299 32.644 30.2743 32.7148C29.9187 32.7855 29.55 32.7492 29.215 32.6105C28.88 32.4717 28.5937 32.2367 28.3923 31.9352C28.1908 31.6337 28.0833 31.2793 28.0833 30.9167C28.0833 30.4304 28.2764 29.9641 28.6203 29.6203C28.9641 29.2765 29.4304 29.0833 29.9166 29.0833ZM33.5833 36.4167H26.25V35.5C26.25 34.2808 28.6975 33.6667 29.9166 33.6667C31.1358 33.6667 33.5833 34.2808 33.5833 35.5V36.4167Z" fill="white"/>
</g>
<defs>
<filter id="filter0_d_1468_12438" x="5" y="10" width="48" height="48" filterUnits="userSpaceOnUse" color-interpolation-filters="sRGB">
<feFlood flood-opacity="0" result="BackgroundImageFix"/>
<feColorMatrix in="SourceAlpha" type="matrix" values="0 0 0 0 0 0 0 0 0 0 0 0 0 0 0 0 0 0 127 0" result="hardAlpha"/>
<feOffset dy="4"/>
<feGaussianBlur stdDeviation="2"/>
<feComposite in2="hardAlpha" operator="out"/>
<feColorMatrix type="matrix" values="0 0 0 0 0.933333 0 0 0 0 0.933333 0 0 0 0 0.933333 0 0 0 0.25 0"/>
<feBlend mode="normal" in2="BackgroundImageFix" result="effect1_dropShadow_1468_12438"/>
<feBlend mode="normal" in="SourceGraphic" in2="effect1_dropShadow_1468_12438" result="shape"/>
</filter>
<filter id="filter1_d_1468_12438" x="14" y="19" width="30" height="30" filterUnits="userSpaceOnUse" color-interpolation-filters="sRGB">
<feFlood flood-opacity="0" result="BackgroundImageFix"/>
<feColorMatrix in="SourceAlpha" type="matrix" values="0 0 0 0 0 0 0 0 0 0 0 0 0 0 0 0 0 0 127 0" result="hardAlpha"/>
<feOffset dy="4"/>
<feGaussianBlur stdDeviation="2"/>
<feComposite in2="hardAlpha" operator="out"/>
<feColorMatrix type="matrix" values="0 0 0 0 0.933333 0 0 0 0 0.933333 0 0 0 0 0.933333 0 0 0 0.25 0"/>
<feBlend mode="normal" in2="BackgroundImageFix" result="effect1_dropShadow_1468_12438"/>
<feBlend mode="normal" in="SourceGraphic" in2="effect1_dropShadow_1468_12438" result="shape"/>
</filter>
<linearGradient id="paint0_linear_1468_12438" x1="15" y1="16.5" x2="45" y2="44.5" gradientUnits="userSpaceOnUse">
<stop stop-color="#164CFF"/>
<stop offset="1" stop-color="#825DD7"/>
</linearGradient>
</defs>
</svg>
