<svg width="15" height="12" viewBox="0 0 15 12" fill="none" xmlns="http://www.w3.org/2000/svg">
<path d="M1.67701 12C1.28673 12 0.952512 11.853 0.674349 11.559C0.396186 11.265 0.257341 10.912 0.257814 10.5V1.5C0.257814 1.0875 0.396895 0.734251 0.675058 0.440251C0.953221 0.146251 1.28721 -0.000498727 1.67701 1.27335e-06H13.0306C13.4209 1.27335e-06 13.7551 0.147001 14.0333 0.441001C14.3114 0.735001 14.4503 1.088 14.4498 1.5V10.5C14.4498 10.9125 14.3107 11.2658 14.0326 11.5598C13.7544 11.8538 13.4204 12.0005 13.0306 12H1.67701ZM7.35381 6.75L1.67701 3V10.5H13.0306V3L7.35381 6.75ZM7.35381 5.25L13.0306 1.5H1.67701L7.35381 5.25ZM1.67701 3V1.5V10.5V3Z" fill="black"/>
</svg>
