<svg width="32" height="32" viewBox="0 0 32 32" fill="none" xmlns="http://www.w3.org/2000/svg">
<path d="M26.6667 11V24C26.6667 28 24.28 29.3333 21.3333 29.3333H10.6667C7.72001 29.3333 5.33334 28 5.33334 24V11C5.33334 6.66666 7.72001 5.66666 10.6667 5.66666C10.6667 6.49332 11 7.23999 11.5467 7.78666C12.0933 8.33332 12.84 8.66666 13.6667 8.66666H18.3333C19.9867 8.66666 21.3333 7.31999 21.3333 5.66666C24.28 5.66666 26.6667 6.66666 26.6667 11Z" stroke="#282828" stroke-width="1.5" stroke-linecap="round" stroke-linejoin="round"/>
<path d="M10.6667 17.3333H16M10.6667 22.6667H21.3333M21.3333 5.66666C21.3333 7.31999 19.9867 8.66666 18.3333 8.66666H13.6667C12.84 8.66666 12.0933 8.33332 11.5467 7.78666C11 7.23999 10.6667 6.49332 10.6667 5.66666C10.6667 4.01332 12.0133 2.66666 13.6667 2.66666H18.3333C19.16 2.66666 19.9067 2.99999 20.4533 3.54666C21 4.09332 21.3333 4.83999 21.3333 5.66666Z" stroke="#282828" stroke-width="1.5" stroke-linecap="round" stroke-linejoin="round"/>
<rect width="14" height="14" transform="translate(9 11)" fill="#F0EFF4"/>
<path d="M11.9167 23.8333C11.5958 23.8333 11.3211 23.7192 11.0924 23.4909C10.8641 23.2622 10.75 22.9875 10.75 22.6667V14.5C10.75 14.1792 10.8641 13.9046 11.0924 13.6763C11.3211 13.4477 11.5958 13.3333 11.9167 13.3333H12.5V12.1667H13.6667V13.3333H18.3333V12.1667H19.5V13.3333H20.0833C20.4042 13.3333 20.6789 13.4477 20.9076 13.6763C21.1359 13.9046 21.25 14.1792 21.25 14.5V22.6667C21.25 22.9875 21.1359 23.2622 20.9076 23.4909C20.6789 23.7192 20.4042 23.8333 20.0833 23.8333H11.9167ZM11.9167 22.6667H20.0833V16.8333H11.9167V22.6667ZM11.9167 15.6667H20.0833V14.5H11.9167V15.6667ZM16 19.1667C15.8347 19.1667 15.6963 19.1107 15.5847 18.9987C15.4727 18.887 15.4167 18.7486 15.4167 18.5833C15.4167 18.418 15.4727 18.2794 15.5847 18.1674C15.6963 18.0558 15.8347 18 16 18C16.1653 18 16.3039 18.0558 16.4159 18.1674C16.5275 18.2794 16.5833 18.418 16.5833 18.5833C16.5833 18.7486 16.5275 18.887 16.4159 18.9987C16.3039 19.1107 16.1653 19.1667 16 19.1667ZM13.6667 19.1667C13.5014 19.1667 13.3628 19.1107 13.2508 18.9987C13.1391 18.887 13.0833 18.7486 13.0833 18.5833C13.0833 18.418 13.1391 18.2794 13.2508 18.1674C13.3628 18.0558 13.5014 18 13.6667 18C13.8319 18 13.9706 18.0558 14.0826 18.1674C14.1942 18.2794 14.25 18.418 14.25 18.5833C14.25 18.7486 14.1942 18.887 14.0826 18.9987C13.9706 19.1107 13.8319 19.1667 13.6667 19.1667ZM18.3333 19.1667C18.1681 19.1667 18.0296 19.1107 17.918 18.9987C17.806 18.887 17.75 18.7486 17.75 18.5833C17.75 18.418 17.806 18.2794 17.918 18.1674C18.0296 18.0558 18.1681 18 18.3333 18C18.4986 18 18.6371 18.0558 18.7487 18.1674C18.8607 18.2794 18.9167 18.418 18.9167 18.5833C18.9167 18.7486 18.8607 18.887 18.7487 18.9987C18.6371 19.1107 18.4986 19.1667 18.3333 19.1667ZM16 21.5C15.8347 21.5 15.6963 21.444 15.5847 21.332C15.4727 21.2204 15.4167 21.0819 15.4167 20.9167C15.4167 20.7514 15.4727 20.6129 15.5847 20.5013C15.6963 20.3893 15.8347 20.3333 16 20.3333C16.1653 20.3333 16.3039 20.3893 16.4159 20.5013C16.5275 20.6129 16.5833 20.7514 16.5833 20.9167C16.5833 21.0819 16.5275 21.2204 16.4159 21.332C16.3039 21.444 16.1653 21.5 16 21.5ZM13.6667 21.5C13.5014 21.5 13.3628 21.444 13.2508 21.332C13.1391 21.2204 13.0833 21.0819 13.0833 20.9167C13.0833 20.7514 13.1391 20.6129 13.2508 20.5013C13.3628 20.3893 13.5014 20.3333 13.6667 20.3333C13.8319 20.3333 13.9706 20.3893 14.0826 20.5013C14.1942 20.6129 14.25 20.7514 14.25 20.9167C14.25 21.0819 14.1942 21.2204 14.0826 21.332C13.9706 21.444 13.8319 21.5 13.6667 21.5ZM18.3333 21.5C18.1681 21.5 18.0296 21.444 17.918 21.332C17.806 21.2204 17.75 21.0819 17.75 20.9167C17.75 20.7514 17.806 20.6129 17.918 20.5013C18.0296 20.3893 18.1681 20.3333 18.3333 20.3333C18.4986 20.3333 18.6371 20.3893 18.7487 20.5013C18.8607 20.6129 18.9167 20.7514 18.9167 20.9167C18.9167 21.0819 18.8607 21.2204 18.7487 21.332C18.6371 21.444 18.4986 21.5 18.3333 21.5Z" fill="black"/>
</svg>
