<svg width="12" height="20" viewBox="0 0 12 20" fill="none" xmlns="http://www.w3.org/2000/svg">
<path d="M5.17092 16.6667H7.53625C7.64137 16.6667 7.73336 16.625 7.8122 16.5417C7.89105 16.4583 7.93047 16.3611 7.93047 16.25C7.93047 16.1389 7.89105 16.0417 7.8122 15.9583C7.73336 15.875 7.64137 15.8333 7.53625 15.8333H5.17092C5.06579 15.8333 4.9738 15.875 4.89496 15.9583C4.81612 16.0417 4.77669 16.1389 4.77669 16.25C4.77669 16.3611 4.81612 16.4583 4.89496 16.5417C4.9738 16.625 5.06579 16.6667 5.17092 16.6667ZM2.41136 19.1667C1.97772 19.1667 1.60636 19.0033 1.29729 18.6767C0.98822 18.35 0.833948 17.9578 0.834474 17.5V2.50001C0.834474 2.04168 0.989009 1.64918 1.29808 1.32251C1.60715 0.995845 1.97824 0.832789 2.41136 0.833345H10.2958C10.7294 0.833345 11.1008 0.996678 11.4099 1.32334C11.7189 1.65001 11.8732 2.04223 11.8727 2.50001V17.5C11.8727 17.9583 11.7182 18.3508 11.4091 18.6775C11.1 19.0042 10.7289 19.1672 10.2958 19.1667H2.41136ZM2.41136 13.3333H10.2958V5.00001H2.41136V13.3333ZM2.41136 15V17.5H10.2958V15H2.41136ZM2.41136 3.33334H10.2958V2.50001H2.41136V3.33334Z" fill="black"/>
</svg>
