<svg width="24" height="24" viewBox="0 0 24 24" fill="none" xmlns="http://www.w3.org/2000/svg">
<g clip-path="url(#clip0_1258_7145)">
<path d="M11 4.87756V20.1426M21 4.04307V16.3263C21 17.3033 20.22 18.2192 19.26 18.3413L18.93 18.382C16.75 18.6772 13.39 19.8068 11.47 20.8855C11.21 21.0382 10.78 21.0382 10.51 20.8855L10.47 20.8652C8.55 19.7966 5.2 18.6772 3.03 18.382L2.74 18.3413C1.78 18.2192 1 17.3033 1 16.3263V4.03289C1 2.82186 1.97 1.90596 3.16 2.00773C5.26 2.18073 8.44 3.25946 10.22 4.38907L10.47 4.54172C10.76 4.72491 11.24 4.72491 11.53 4.54172L11.7 4.42978C12.33 4.03289 13.13 3.636 14 3.27981V7.43191L16 6.07841L18 7.43191V2.11967C18.27 2.06879 18.53 2.03826 18.77 2.0179H18.83C20.02 1.91613 21 2.82186 21 4.04307Z" stroke="black" stroke-width="1.5" stroke-linecap="round" stroke-linejoin="round"/>
<path d="M16.7917 1.896V7.3335L14.7083 5.94808L12.625 7.3335V3.0835C13.9896 2.54183 15.5104 2.10433 16.7917 1.896V1.896Z" stroke="black" stroke-width="1.5" stroke-linecap="round" stroke-linejoin="round"/>
</g>
<defs>
<clipPath id="clip0_1258_7145">
<rect width="24" height="24" fill="white"/>
</clipPath>
</defs>
</svg>
