<svg width="18" height="16" viewBox="0 0 18 16" fill="none" xmlns="http://www.w3.org/2000/svg">
<path d="M16.4792 15.5832L11.5625 10.6665L9.77083 12.4582C9.6875 12.5415 9.59722 12.6007 9.5 12.6357C9.40278 12.6707 9.29861 12.6879 9.1875 12.6873C9.07639 12.6873 8.97222 12.6698 8.875 12.6348C8.77778 12.5998 8.6875 12.5409 8.60417 12.4582L5.0625 8.9165C4.90972 8.76373 4.83333 8.56595 4.83333 8.32317C4.83333 8.08039 4.90972 7.88234 5.0625 7.729C5.21528 7.57623 5.41333 7.49984 5.65667 7.49984C5.9 7.49984 6.09778 7.57623 6.25 7.729L9.1875 10.6665L10.3542 9.49984L2.3125 1.45817C2.15972 1.30539 2.08333 1.10734 2.08333 0.864004C2.08333 0.620671 2.15972 0.422893 2.3125 0.27067C2.46528 0.117893 2.66333 0.0415039 2.90667 0.0415039C3.15 0.0415039 3.34778 0.117893 3.5 0.27067L17.6667 14.4373C17.8194 14.5901 17.8958 14.7776 17.8958 14.9998C17.8958 15.2221 17.8125 15.4165 17.6458 15.5832C17.4931 15.7359 17.2986 15.8123 17.0625 15.8123C16.8264 15.8123 16.6319 15.7359 16.4792 15.5832ZM13.8958 8.33317L12.7292 7.1665L16.25 3.64567C16.4028 3.49289 16.5972 3.4165 16.8333 3.4165C17.0694 3.4165 17.2639 3.49289 17.4167 3.64567C17.5694 3.79845 17.6458 3.99289 17.6458 4.229C17.6458 4.46512 17.5694 4.65956 17.4167 4.81234L13.8958 8.33317ZM11.5208 5.95817L10.3542 4.7915L11.5625 3.58317C11.7153 3.43039 11.9097 3.354 12.1458 3.354C12.3819 3.354 12.5764 3.43039 12.7292 3.58317C12.8819 3.73595 12.9583 3.93039 12.9583 4.1665C12.9583 4.40262 12.8819 4.59706 12.7292 4.74984L11.5208 5.95817ZM4.47917 12.6873C4.36806 12.6873 4.26389 12.6698 4.16667 12.6348C4.06944 12.5998 3.97917 12.5409 3.89583 12.4582L0.354167 8.9165C0.201389 8.76373 0.125 8.56928 0.125 8.33317C0.125 8.09706 0.201389 7.90262 0.354167 7.74984C0.506944 7.59706 0.701389 7.52067 0.9375 7.52067C1.17361 7.52067 1.36806 7.59706 1.52083 7.74984L4.47917 10.7082L5.64583 11.8748L5.0625 12.4582C4.97917 12.5415 4.88889 12.6007 4.79167 12.6357C4.69444 12.6707 4.59028 12.6879 4.47917 12.6873Z" fill="#3F3F3F"/>
</svg>
