<svg width="24" height="24" viewBox="0 0 24 24" fill="none" xmlns="http://www.w3.org/2000/svg">
<path d="M17.8856 6.84704L18.15 7.15866V6.75V4.15H19.85V10.85H13.15V9.15H17.2H17.4585L17.3302 8.92558C16.7838 7.96931 16.0354 7.21675 15.0869 6.67004C14.1385 6.12339 13.1086 5.85 12 5.85C10.294 5.85 8.83905 6.44882 7.64393 7.64393C6.44882 8.83905 5.85 10.294 5.85 12C5.85 13.706 6.44882 15.1609 7.64393 16.3561C8.83905 17.5512 10.294 18.15 12 18.15C13.314 18.15 14.5028 17.7739 15.5618 17.0223C16.5916 16.2915 17.3237 15.333 17.7558 14.15H19.553C19.0782 15.7994 18.1638 17.1502 16.8078 18.2067C15.4011 19.3026 13.8003 19.85 12 19.85C9.80561 19.85 7.95235 19.0902 6.43107 17.5689C4.90979 16.0477 4.15 14.1944 4.15 12C4.15 9.80561 4.90979 7.95235 6.43107 6.43107C7.95235 4.90979 9.80561 4.15 12 4.15C13.1286 4.15 14.2076 4.38278 15.2382 4.84868C16.2678 5.31414 17.1499 5.97988 17.8856 6.84704Z" fill="white" stroke="#4358BF" stroke-width="0.3"/>
</svg>
