<svg width="30" height="32" viewBox="0 0 30 32" fill="none" xmlns="http://www.w3.org/2000/svg">
<g clip-path="url(#clip0_1258_7158)">
<path d="M2 11.5407V8.13333C2 4.73956 4.7738 2 8.21 2H11.66M19.94 2H23.39C26.8262 2 29.6 4.73956 29.6 8.13333V11.5407M29.6 21.0815V23.1259C29.6 26.5197 26.8262 29.2593 23.39 29.2593H21.32M11.66 29.2593H8.21C4.7738 29.2593 2 26.5197 2 23.1259V19.7185M13.73 8.81481V11.5407C13.73 12.9037 13.04 13.5852 11.66 13.5852H8.9C7.52 13.5852 6.83 12.9037 6.83 11.5407V8.81481C6.83 7.45185 7.52 6.77037 8.9 6.77037H11.66C13.04 6.77037 13.73 7.45185 13.73 8.81481ZM24.77 8.81481V11.5407C24.77 12.9037 24.08 13.5852 22.7 13.5852H19.94C18.56 13.5852 17.87 12.9037 17.87 11.5407V8.81481C17.87 7.45185 18.56 6.77037 19.94 6.77037H22.7C24.08 6.77037 24.77 7.45185 24.77 8.81481ZM13.73 19.7185V22.4444C13.73 23.8074 13.04 24.4889 11.66 24.4889H8.9C7.52 24.4889 6.83 23.8074 6.83 22.4444V19.7185C6.83 18.3556 7.52 17.6741 8.9 17.6741H11.66C13.04 17.6741 13.73 18.3556 13.73 19.7185ZM24.77 19.7185V22.4444C24.77 23.8074 24.08 24.4889 22.7 24.4889H19.94C18.56 24.4889 17.87 23.8074 17.87 22.4444V19.7185C17.87 18.3556 18.56 17.6741 19.94 17.6741H22.7C24.08 17.6741 24.77 18.3556 24.77 19.7185Z" stroke="white" stroke-width="2" stroke-linecap="round" stroke-linejoin="round"/>
</g>
<defs>
<clipPath id="clip0_1258_7158">
<path d="M0 8C0 3.58172 3.58172 0 8 0H22C26.4183 0 30 3.58172 30 8V24C30 28.4183 26.4183 32 22 32H8C3.58172 32 0 28.4183 0 24V8Z" fill="white"/>
</clipPath>
</defs>
</svg>
