<svg width="22" height="22" viewBox="0 0 22 22" fill="none" xmlns="http://www.w3.org/2000/svg">
<path fill-rule="evenodd" clip-rule="evenodd" d="M10.644 1.8335C5.778 1.8335 1.83337 5.69101 1.83337 10.4495C1.83337 15.208 5.778 19.0655 10.644 19.0655C12.7251 19.0655 14.6377 18.3598 16.1453 17.1799L19.009 19.9731L19.0852 20.0372C19.3511 20.2296 19.728 20.2078 19.9686 19.9719C20.2332 19.7124 20.2327 19.2923 19.9673 19.0335L17.1373 16.2731C18.5762 14.7396 19.4545 12.6948 19.4545 10.4495C19.4545 5.69101 15.5099 1.8335 10.644 1.8335ZM10.644 3.16059C14.7604 3.16059 18.0975 6.42394 18.0975 10.4495C18.0975 14.475 14.7604 17.7384 10.644 17.7384C6.52749 17.7384 3.19044 14.475 3.19044 10.4495C3.19044 6.42394 6.52749 3.16059 10.644 3.16059Z" fill="#040415"/>
</svg>
