<svg width="32" height="32" viewBox="0 0 32 32" fill="none" xmlns="http://www.w3.org/2000/svg">
<path d="M26.6666 11V24C26.6666 28 24.28 29.3333 21.3333 29.3333H10.6666C7.71998 29.3333 5.33331 28 5.33331 24V11C5.33331 6.66667 7.71998 5.66667 10.6666 5.66667C10.6666 6.49334 11 7.24001 11.5466 7.78667C12.0933 8.33334 12.84 8.66667 13.6666 8.66667H18.3333C19.9866 8.66667 21.3333 7.32001 21.3333 5.66667C24.28 5.66667 26.6666 6.66667 26.6666 11Z" stroke="#282828" stroke-width="1.5" stroke-linecap="round" stroke-linejoin="round"/>
<path d="M10.6667 17.3333H16M10.6667 22.6667H21.3334M21.3334 5.66667C21.3334 7.32001 19.9867 8.66667 18.3334 8.66667H13.6667C12.84 8.66667 12.0934 8.33334 11.5467 7.78667C11 7.24001 10.6667 6.49334 10.6667 5.66667C10.6667 4.01334 12.0134 2.66667 13.6667 2.66667H18.3334C19.16 2.66667 19.9067 3.00001 20.4534 3.54667C21 4.09334 21.3334 4.84001 21.3334 5.66667Z" stroke="#282828" stroke-width="1.5" stroke-linecap="round" stroke-linejoin="round"/>
<rect width="16" height="16" transform="translate(8 10)" fill="#F0EFF4"/>
<path d="M13.5167 17.3333C13.2611 17.3333 13.0667 17.2196 12.9333 16.992C12.8 16.764 12.8056 16.5389 12.95 16.3167L15.4333 12.2667C15.5667 12.0556 15.7556 11.95 16 11.95C16.2444 11.95 16.4333 12.0556 16.5667 12.2667L19.05 16.3167C19.1944 16.5389 19.2 16.764 19.0667 16.992C18.9333 17.2196 18.7389 17.3333 18.4833 17.3333H13.5167ZM19.6667 24.6667C18.8333 24.6667 18.1249 24.3751 17.5413 23.792C16.9582 23.2084 16.6667 22.5 16.6667 21.6667C16.6667 20.8333 16.9582 20.1249 17.5413 19.5413C18.1249 18.9582 18.8333 18.6667 19.6667 18.6667C20.5 18.6667 21.2084 18.9582 21.792 19.5413C22.3751 20.1249 22.6667 20.8333 22.6667 21.6667C22.6667 22.5 22.3751 23.2084 21.792 23.792C21.2084 24.3751 20.5 24.6667 19.6667 24.6667ZM10.6667 24.3333C10.4778 24.3333 10.3196 24.2693 10.192 24.1413C10.064 24.0138 10 23.8556 10 23.6667V19.6667C10 19.4778 10.064 19.3193 10.192 19.1913C10.3196 19.0638 10.4778 19 10.6667 19H14.6667C14.8556 19 15.014 19.0638 15.142 19.1913C15.2696 19.3193 15.3333 19.4778 15.3333 19.6667V23.6667C15.3333 23.8556 15.2696 24.0138 15.142 24.1413C15.014 24.2693 14.8556 24.3333 14.6667 24.3333H10.6667ZM19.6667 23.3333C20.1333 23.3333 20.5278 23.1722 20.85 22.85C21.1722 22.5278 21.3333 22.1333 21.3333 21.6667C21.3333 21.2 21.1722 20.8056 20.85 20.4833C20.5278 20.1611 20.1333 20 19.6667 20C19.2 20 18.8056 20.1611 18.4833 20.4833C18.1611 20.8056 18 21.2 18 21.6667C18 22.1333 18.1611 22.5278 18.4833 22.85C18.8056 23.1722 19.2 23.3333 19.6667 23.3333ZM11.3333 23H14V20.3333H11.3333V23ZM14.7 16H17.3L16 13.9L14.7 16Z" fill="black"/>
</svg>
