<svg width="17" height="18" viewBox="0 0 17 18" fill="none" xmlns="http://www.w3.org/2000/svg">
<path fill-rule="evenodd" clip-rule="evenodd" d="M11.1919 6.75C11.1919 7.54565 10.8929 8.30871 10.3606 8.87132C9.82828 9.43393 9.10632 9.75 8.35353 9.75C7.60074 9.75 6.87879 9.43393 6.34648 8.87132C5.81418 8.30871 5.51514 7.54565 5.51514 6.75C5.51514 5.95435 5.81418 5.19129 6.34648 4.62868C6.87879 4.06607 7.60074 3.75 8.35353 3.75C9.10632 3.75 9.82828 4.06607 10.3606 4.62868C10.8929 5.19129 11.1919 5.95435 11.1919 6.75ZM9.77273 6.75C9.77273 7.14782 9.62321 7.52936 9.35706 7.81066C9.09091 8.09196 8.72993 8.25 8.35353 8.25C7.97714 8.25 7.61616 8.09196 7.35001 7.81066C7.08386 7.52936 6.93434 7.14782 6.93434 6.75C6.93434 6.35218 7.08386 5.97064 7.35001 5.68934C7.61616 5.40804 7.97714 5.25 8.35353 5.25C8.72993 5.25 9.09091 5.40804 9.35706 5.68934C9.62321 5.97064 9.77273 6.35218 9.77273 6.75Z" fill="black"/>
<path fill-rule="evenodd" clip-rule="evenodd" d="M8.35345 0.75C4.04263 0.75 0.547852 4.44375 0.547852 9C0.547852 13.5562 4.04263 17.25 8.35345 17.25C12.6643 17.25 16.159 13.5562 16.159 9C16.159 4.44375 12.6643 0.75 8.35345 0.75ZM1.96705 9C1.96705 10.5675 2.473 12.0105 3.32097 13.1565C3.91648 12.3299 4.68475 11.6601 5.56574 11.1992C6.44673 10.7384 7.41659 10.4991 8.39957 10.5C9.36983 10.499 10.3275 10.7321 11.1996 11.1816C12.0717 11.631 12.8353 12.2849 13.4321 13.0935C14.0469 12.2412 14.4609 11.2464 14.6397 10.1914C14.8186 9.13647 14.7572 8.05165 14.4606 7.02674C14.164 6.00183 13.6408 5.06629 12.9343 4.29753C12.2277 3.52877 11.3581 2.94889 10.3974 2.60588C9.43666 2.26287 8.41248 2.16658 7.40958 2.32498C6.40668 2.48338 5.45387 2.89192 4.63001 3.51679C3.80615 4.14166 3.13492 4.9649 2.67185 5.9184C2.20877 6.87189 1.96718 7.92823 1.96705 9ZM8.35345 15.75C6.88738 15.7523 5.46557 15.2193 4.3286 14.241C4.78624 13.5486 5.39537 12.9832 6.10415 12.593C6.81294 12.2028 7.60041 11.9994 8.39957 12C9.18876 11.9993 9.96671 12.1977 10.6688 12.5786C11.3709 12.9595 11.9769 13.5119 12.4365 14.19C11.2907 15.2 9.84544 15.7522 8.35345 15.75Z" fill="black"/>
</svg>
